<svg xmlns="http://www.w3.org/2000/svg" viewBox="0 0 322.2 115.1"><defs><style>.cls-1{fill:#00afaa;}.cls-2{fill:#4b858e;}</style></defs><title>logo_3</title><g id="Capa_2" data-name="Capa 2"><g id="Capa_1-2" data-name="Capa 1"><path class="cls-1" d="M113.5,53.7,61.3,1.6a5.4,5.4,0,0,0-7.6,0L1.6,53.7a5.4,5.4,0,0,0,0,7.6L24,83.7v-.3a1.6,1.6,0,0,1,.7-1.1c2.2-1.4,4.5-2.7,6.8-4a2.6,2.6,0,0,1,1.5-.1l7,2.1,12.9,3.9a1.6,1.6,0,0,1,1,.8c.1,1.2,0,2.3,0,3.6l-1.6-.4L33.7,82.6c-.4-.1-1-.3-1.3-.1L26.2,86l1.4,1.4c1-.6,2-1.1,2.8-1.7a3.6,3.6,0,0,1,3.6-.4L52.8,91c.4.2,1,.6,1.1.9s0,2.3,0,3.6l-1.2-.3L33.6,89.4a2.6,2.6,0,0,0-1.2-.1l-1.8,1L32,91.8c1.2-.2,2.2.5,3.2.8l17.7,5.3a2.2,2.2,0,0,1,1,.9c.1,1.1,0,2.3,0,3.6L37.8,97.5l3.8,3.9h.1c3.7,1,7.3,2.2,11,3.3.9.2,1.3.6,1.2,1.6v7.3a5.3,5.3,0,0,0,6.7.5c0-1.5-.1-2.9,0-4.2s.4-.5.6-.7l6.1-3.5a2.3,2.3,0,0,1,1.4-.1h.4l2-2-1.7-.6a2.8,2.8,0,0,0-1.8.3c-2.3,1.2-4.5,2.5-7,4,0-1.6-.1-2.9,0-4.2s.3-.6.5-.8c2.1-1.2,4.2-2.5,6.4-3.6a1.6,1.6,0,0,1,1.2-.1l5.7,1.7,2-2-7-2.1a2.3,2.3,0,0,0-1.8.2c-2.3,1.2-4.5,2.6-7,4,0-1.6-.1-2.9,0-4.2s.4-.6.6-.8L67.3,92a2,2,0,0,1,1.3-.2l11,3.4,2-2.1L69.3,89.4a2.9,2.9,0,0,0-1.6.2l-6,3.4-1.1.6c0-1.5-.1-2.9,0-4.2a.9.9,0,0,1,.6-.7c2.1-1.3,4.1-2.5,6.2-3.6a1.6,1.6,0,0,1,1.2-.1l16.3,4.9,2-2L69.4,82.6a2.2,2.2,0,0,0-1.8.2c-2.3,1.2-4.5,2.6-7,4V82.4c0-.2.4-.5.7-.6l6-3.5a2.5,2.5,0,0,1,1.5-.1l20.8,6.3.5.2,23.4-23.4A5.4,5.4,0,0,0,113.5,53.7ZM24,48.7a1.6,1.6,0,0,1,.7-.7l6.9-4a2,2,0,0,1,1.3-.1l20.1,6a1.1,1.1,0,0,1,.9,1.4v3.1l-8.5-2.6L33.6,48.3a2.5,2.5,0,0,0-1.7.2c-2.3,1.2-4.5,2.6-6.7,3.8l-1.2.6Zm0,6.8a2.3,2.3,0,0,1,.7-.7l6.9-4a1.7,1.7,0,0,1,1.2-.1l20.4,6.2a1.1,1.1,0,0,1,.7.8c.1,1.1,0,2.3,0,3.6l-5-1.5L33.7,55.1a2.1,2.1,0,0,0-1.9.3l-6.4,3.7-1.4.7Zm0,6.9c0-.2.4-.6.7-.7,2.2-1.4,4.5-2.7,6.8-4a2.6,2.6,0,0,1,1.5-.1l20.1,6.1c.6.2.9.4.8,1.1v3.3l-5.1-1.5L33.5,62a1.8,1.8,0,0,0-1.6.2c-2.3,1.2-4.5,2.5-6.7,3.8l-1.2.6Zm0,6.9c0-.3.4-.6.6-.8l7-4a1.7,1.7,0,0,1,1.4,0l20,6c.7.2,1,.5.9,1.2v3.2l-2.1-.5L33.6,68.9a2.1,2.1,0,0,0-1.7.2c-2.3,1.2-4.5,2.5-6.7,3.8l-1.2.6Zm29.9,9.4v3.1l-1.5-.4L33.9,75.8a2.9,2.9,0,0,0-2.4.2l-6.3,3.8-1.2.6v-4a1.3,1.3,0,0,1,.6-1l6.9-3.9a2,2,0,0,1,1.5-.2l19.9,6C53.7,77.6,54,77.9,53.9,78.7ZM90.5,61.5l-8-2.4-13.2-4a2.9,2.9,0,0,0-1.6.2l-6,3.4-1.1.6c0-1.5-.1-2.9,0-4.2a.9.9,0,0,1,.6-.7l6.2-3.6a1.6,1.6,0,0,1,1.2-.1l21,6.4c.6.1,1,.4.9,1.1S90.5,60.3,90.5,61.5Zm0-6.8-2.8-.9L69.4,48.3a3.6,3.6,0,0,0-1.8.2l-7,4V48.2c0-.3.4-.6.7-.7l6-3.5a2.5,2.5,0,0,1,1.5-.1l20.8,6.3a1,1,0,0,1,.9,1.2Zm0-10.1v3.1l-1.2-.2-19.9-6a2.2,2.2,0,0,0-1.8.2c-2.3,1.2-4.5,2.5-7,4,0-1.6-.1-2.9,0-4.2a1.2,1.2,0,0,1,.5-.8l6.4-3.6a1.4,1.4,0,0,1,1.1-.1c7,2.1,14,4.3,21,6.3A1.2,1.2,0,0,1,90.5,44.6ZM60.6,62c0-.3.4-.6.6-.8l6.1-3.5a2,2,0,0,1,1.3-.1L89.7,64a1.6,1.6,0,0,1,.8.8v3.5L89.2,68,69.4,62a2.8,2.8,0,0,0-1.8.2c-2.3,1.2-4.5,2.6-7,4C60.6,64.6,60.5,63.3,60.6,62ZM90.5,82l-1.6-.4L69.4,75.7a2.1,2.1,0,0,0-1.9.2l-5.8,3.4-1.1.6c0-1.6-.1-2.9,0-4.3s.4-.5.6-.7l6.1-3.5a2.3,2.3,0,0,1,1.4-.1l20.9,6.3c.6.2.9.4.9,1.1Zm0-10c-.1,1,0,2,0,3.2l-6.8-2L69.4,68.9a2.2,2.2,0,0,0-1.8.2c-2.3,1.2-4.5,2.5-7,4,0-1.6-.1-2.9,0-4.2a1.2,1.2,0,0,1,.5-.7l6.4-3.7a1.6,1.6,0,0,1,1.2-.1l20.9,6.4A1,1,0,0,1,90.5,72Zm0-34.2c-.1,1,0,2,0,3.2l-6.8-2.1L69.4,34.6a3.7,3.7,0,0,0-1.8.2l-5.8,3.3-1.2.7V34.5c0-.2.4-.5.6-.7l6.1-3.5a2.3,2.3,0,0,1,1.4-.1l20.8,6.3C90.2,36.7,90.6,37,90.5,37.8Z"/><path class="cls-2" d="M131,30.1a4.7,4.7,0,0,1,4.7-4.7,4.6,4.6,0,0,1,4.6,4.7V63.7a4.5,4.5,0,0,1-4.6,4.6,4.6,4.6,0,0,1-4.7-4.6Z"/><path class="cls-2" d="M150.9,30.2a4.6,4.6,0,0,1,4.6-4.7h1a5.7,5.7,0,0,1,4.8,2.7l17.9,23.6V30a4.6,4.6,0,1,1,9.2,0V63.6a4.6,4.6,0,0,1-4.7,4.6h-.3c-2.2,0-3.5-1.1-4.8-2.7L160.1,41.2V63.8a4.6,4.6,0,0,1-4.6,4.5,4.5,4.5,0,0,1-4.6-4.5Z"/><path class="cls-2" d="M198.9,30.1a4.7,4.7,0,0,1,4.7-4.7,4.6,4.6,0,0,1,4.6,4.7V63.7a4.5,4.5,0,0,1-4.6,4.6,4.6,4.6,0,0,1-4.7-4.6Z"/><path class="cls-2" d="M216.3,47h0a21.5,21.5,0,0,1,22-21.9c6.4,0,10.7,1.7,14.2,4.3a5.1,5.1,0,0,1,1.8,3.7,4.6,4.6,0,0,1-4.6,4.5,5.2,5.2,0,0,1-2.8-.9,14,14,0,0,0-8.6-3c-7.1,0-12.3,5.9-12.3,13.2h0c0,7.2,5,13.2,12.3,13.2a13.8,13.8,0,0,0,9.2-3.3,4.1,4.1,0,0,1,2.7-1,4.4,4.4,0,0,1,4.4,4.3,4.6,4.6,0,0,1-1.6,3.3c-3.8,3.3-8.3,5.3-15,5.3A21.4,21.4,0,0,1,216.3,47Z"/><path class="cls-2" d="M263.1,30.1a4.7,4.7,0,0,1,4.7-4.7,4.6,4.6,0,0,1,4.6,4.7V63.7a4.5,4.5,0,0,1-4.6,4.6,4.6,4.6,0,0,1-4.7-4.6Z"/><path class="cls-2" d="M280,62l14.8-33.2a5.6,5.6,0,0,1,5.4-3.7h.5a5.6,5.6,0,0,1,5.4,3.7L320.8,62a4.9,4.9,0,0,1,.5,1.9,4.3,4.3,0,0,1-4.4,4.4,4.8,4.8,0,0,1-4.5-3.1l-2.8-6.7H291l-2.9,7a4.6,4.6,0,0,1-4.3,2.8,4.3,4.3,0,0,1-4.3-4.3A4.9,4.9,0,0,1,280,62Zm26.1-11.7-5.8-13.9-5.9,13.9Z"/><path class="cls-1" d="M131,83a.9.9,0,0,1,1.8,0V97.6a.9.9,0,0,1-1.8,0Z"/><path class="cls-1" d="M139.9,83a.9.9,0,0,1,.9-.9h.3c.4,0,.6.2.9.6l9.8,12.5V83a.9.9,0,0,1,1.8,0V97.6a.8.8,0,0,1-.8.9h-.1a1.2,1.2,0,0,1-1-.6l-10-12.8V97.6a.9.9,0,1,1-1.8,0Z"/><path class="cls-1" d="M160.5,83a1,1,0,0,1,.9-.9h.2a1.1,1.1,0,0,1,.9.5l5.8,8.7,5.8-8.7a1.1,1.1,0,0,1,.9-.5h.2a1,1,0,0,1,.9.9V97.6a1,1,0,0,1-.9.9,1,1,0,0,1-1-.9V85.5L169,93.1c-.2.3-.4.5-.7.5a1,1,0,0,1-.8-.5l-5.2-7.6V97.6a.9.9,0,0,1-1.8,0Z"/><path class="cls-1" d="M182.3,90.4h0a8.3,8.3,0,1,1,16.5,0h0a8.2,8.2,0,0,1-8.3,8.4A8.1,8.1,0,0,1,182.3,90.4Zm14.6,0h0a6.5,6.5,0,0,0-6.4-6.7c-3.7,0-6.3,3-6.3,6.7h0a6.4,6.4,0,1,0,12.7.1Z"/><path class="cls-1" d="M205,83.1a.9.9,0,0,1,.9-.9h6a6.2,6.2,0,0,1,4.3,1.4,4,4,0,0,1,1,2.6h0a3.8,3.8,0,0,1-2.6,3.7c1.9.6,3.5,1.7,3.5,4h0c0,2.8-2.3,4.4-5.9,4.4h-6.3a.9.9,0,0,1-.9-.9Zm6.6,6.3c2.2,0,3.7-1,3.7-2.9h0c0-1.6-1.2-2.7-3.6-2.7h-4.9v5.6Zm.7,7.4c2.4,0,3.9-1.1,3.9-2.9h0c0-1.7-1.4-2.7-4.3-2.7h-5.1v5.7Z"/><path class="cls-1" d="M224.2,83a.9.9,0,0,1,.9-.9,1,1,0,0,1,1,.9V97.6a1,1,0,0,1-1,.9.9.9,0,0,1-.9-.9Z"/><path class="cls-1" d="M233.1,83a.9.9,0,0,1,.9-.9,1,1,0,0,1,1,.9V96.7h8.4a.9.9,0,0,1,.8.9.8.8,0,0,1-.8.8H234a.9.9,0,0,1-.9-.9Z"/><path class="cls-1" d="M250,83a.9.9,0,0,1,1.8,0V97.6a.9.9,0,0,1-1.8,0Z"/><path class="cls-1" d="M257.9,97.2l6.6-14.4a1.1,1.1,0,0,1,1.1-.8h.1a1.1,1.1,0,0,1,1.1.8l6.6,14.4a.9.9,0,0,1,.1.5.9.9,0,0,1-.8.8.9.9,0,0,1-.9-.6l-1.7-3.8h-8.9l-1.7,3.8a1,1,0,0,1-.9.6.7.7,0,0,1-.8-.8A1.1,1.1,0,0,1,257.9,97.2Zm11.4-4.7-3.7-8.3-3.7,8.3Z"/><path class="cls-1" d="M279.4,83.1a.9.9,0,0,1,.9-.9h6a6.8,6.8,0,0,1,4.7,1.6,4.8,4.8,0,0,1,1.2,3.2h0c0,2.6-1.8,4.2-4.3,4.7l4,5.2a.9.9,0,0,1,.3.6,1,1,0,0,1-.9.9,1.3,1.3,0,0,1-.9-.4l-4.6-6h-4.6v5.5a.9.9,0,0,1-1.8,0Zm6.8,7.4c2.4,0,4.1-1.3,4.1-3.4h0c0-2-1.5-3.2-4.1-3.2h-5v6.6Z"/><path class="cls-1" d="M298.6,83a.9.9,0,0,1,1.8,0V97.6a.9.9,0,1,1-1.8,0Z"/><path class="cls-1" d="M306.5,97.2l6.6-14.4a1.2,1.2,0,0,1,1.2-.8h0a1.2,1.2,0,0,1,1.2.8l6.6,14.4c0,.2.1.3.1.5a.9.9,0,0,1-.9.8,1.1,1.1,0,0,1-.9-.6l-1.7-3.8h-8.9l-1.7,3.8a1,1,0,0,1-.9.6.8.8,0,0,1-.8-.8A1.1,1.1,0,0,1,306.5,97.2ZM318,92.5l-3.7-8.3-3.8,8.3Z"/></g></g></svg>